<svg data-v-423bf9ae="" xmlns="http://www.w3.org/2000/svg" viewBox="0 0 519 90" class="iconLeftSlogan"><!----><!----><!----><g data-v-423bf9ae="" id="4ce1447c-0cdf-441b-9d62-ec534abeedee" fill="#262C4C" transform="matrix(5.240174759780263,0,0,5.240174759780263,113.98252048384848,-5.868995159894546)"><path d="M2.00 12.29L5.64 12.29L5.64 12.07L4.48 12.07L4.48 3.72C5.12 3.91 5.75 4.03 6.29 4.03C7.69 4.03 8.29 3.14 8.29 2.32C8.29 1.71 7.81 1.12 7.07 1.12C6.41 1.12 5.98 1.61 5.98 2.13C5.98 2.58 6.27 3.07 6.89 3.07C7.38 3.07 7.69 2.72 7.69 2.32C7.69 1.96 7.48 1.76 7.25 1.68C7.18 1.65 7.14 1.61 7.14 1.54C7.14 1.46 7.20 1.41 7.27 1.41C7.56 1.41 8.04 1.74 8.04 2.34C8.04 3.05 7.45 3.77 6.29 3.77C5.47 3.77 4.44 3.44 3.35 3.11C2.53 2.86 1.48 2.35 0.62 2.35C0.31 2.35 0.01 2.42-0.22 2.58C-0.55 2.80-0.76 3.14-0.76 3.57C-0.76 4.23-0.27 4.66 0.25 4.66C0.70 4.66 1.19 4.37 1.19 3.75C1.19 3.26 0.84 2.95 0.45 2.95C0.08 2.95-0.11 3.16-0.20 3.39C-0.22 3.46-0.27 3.50-0.34 3.50C-0.42 3.50-0.46 3.44-0.46 3.37C-0.46 3.21-0.35 2.98-0.13 2.81C0.08 2.66 0.34 2.60 0.63 2.60C1.33 2.60 2.14 2.98 2.79 3.19L3.02 3.28L3.02 12.07L2.00 12.07ZM10.26 5.57C9.14 5.57 8.01 6.03 8.01 7.15C8.01 7.71 8.41 8.15 8.97 8.15C9.39 8.15 9.76 7.83 9.76 7.41C9.76 7 9.51 6.65 9.09 6.65C8.78 6.65 8.57 6.82 8.53 7.01C8.51 7.10 8.47 7.14 8.40 7.14C8.34 7.14 8.27 7.10 8.27 7.01C8.27 6.59 8.69 5.85 10.04 5.85C11.41 5.85 11.76 6.71 11.76 8.08L11.76 8.76C9.90 8.72 7.50 8.89 7.50 10.75C7.50 11.98 8.57 12.57 9.80 12.57C10.82 12.57 11.62 12.01 11.87 11.02L11.96 11.02C11.96 11.76 12.04 12.57 12.78 12.57C13.79 12.57 14.10 11.41 14.20 10.40L13.94 10.37C13.85 11.28 13.61 11.98 13.26 11.98C13.06 11.98 13.01 11.73 13.01 11.41L13.01 8.93C13.01 6.61 12.59 5.57 10.26 5.57ZM11.76 9.95C11.76 11.09 11.27 12.18 10.14 12.18C9.27 12.18 8.86 11.56 8.86 10.70C8.86 9.17 10.25 8.97 11.76 9.02ZM16.56 5.57C15.69 5.57 14.97 5.95 14.97 6.87C14.97 7.42 15.37 7.87 15.93 7.87C16.35 7.87 16.72 7.55 16.72 7.13C16.72 6.72 16.46 6.37 16.04 6.37C15.74 6.37 15.53 6.54 15.48 6.73C15.47 6.82 15.43 6.86 15.36 6.86C15.30 6.86 15.23 6.82 15.23 6.73C15.23 6.06 15.89 5.80 16.56 5.80C17.15 5.80 18.05 5.98 18.59 6.06L14.73 12.28L14.78 12.38C15.01 12.32 15.36 12.28 15.61 12.28C16.65 12.28 17.49 12.57 18.52 12.57C19.53 12.57 20.40 12.19 20.40 11.13C20.40 10.58 19.99 10.14 19.43 10.14C19.01 10.14 18.65 10.46 18.65 10.88C18.65 11.28 18.90 11.63 19.32 11.63C19.63 11.63 19.84 11.47 19.88 11.27C19.89 11.19 19.94 11.14 20.01 11.14C20.06 11.14 20.13 11.19 20.13 11.27C20.13 12.08 19.33 12.35 18.52 12.35C17.93 12.35 16.83 12.17 16.28 12.08L16.27 12.08L20.15 5.87L20.09 5.77C19.87 5.82 19.52 5.87 19.26 5.87C18.23 5.87 17.60 5.57 16.56 5.57ZM24.05 5.57C22.93 5.57 21.80 6.03 21.80 7.15C21.80 7.71 22.20 8.15 22.76 8.15C23.18 8.15 23.55 7.83 23.55 7.41C23.55 7 23.30 6.65 22.88 6.65C22.57 6.65 22.36 6.82 22.32 7.01C22.30 7.10 22.26 7.14 22.19 7.14C22.13 7.14 22.06 7.10 22.06 7.01C22.06 6.59 22.48 5.85 23.83 5.85C25.20 5.85 25.55 6.71 25.55 8.08L25.55 8.76C23.69 8.72 21.29 8.89 21.29 10.75C21.29 11.98 22.36 12.57 23.59 12.57C24.61 12.57 25.41 12.01 25.66 11.02L25.75 11.02C25.75 11.76 25.83 12.57 26.57 12.57C27.58 12.57 27.89 11.41 27.99 10.40L27.73 10.37C27.64 11.28 27.40 11.98 27.05 11.98C26.85 11.98 26.80 11.73 26.80 11.41L26.80 8.93C26.80 6.61 26.38 5.57 24.05 5.57ZM25.55 9.95C25.55 11.09 25.06 12.18 23.93 12.18C23.06 12.18 22.65 11.56 22.65 10.70C22.65 9.17 24.04 8.97 25.55 9.02ZM38.77 10.61C38.77 8.96 38.65 7.45 36.79 7.32L36.74 7.21C38.08 6.40 38.54 5.42 38.54 4.47C38.54 3.57 37.88 3.05 37.20 3.05C36.40 3.05 35.92 3.61 35.92 4.27C35.92 4.93 36.41 5.36 36.93 5.36C37.38 5.36 37.87 5.07 37.87 4.45C37.87 3.96 37.52 3.65 37.13 3.65C36.76 3.65 36.57 3.86 36.48 4.09C36.46 4.16 36.41 4.20 36.34 4.20C36.26 4.20 36.22 4.14 36.22 4.07C36.22 3.78 36.51 3.30 37.20 3.30C37.65 3.30 38.29 3.60 38.29 4.49C38.29 5.94 36.86 7.49 34.31 7.49L34.31 3.42L35.48 3.42L35.48 3.19L31.84 3.19L31.84 3.42L32.86 3.42L32.86 12.07L31.84 12.07L31.84 12.29L35.48 12.29L35.48 12.07L34.31 12.07L34.31 7.76C34.55 7.74 34.80 7.73 35.04 7.73C36.20 7.73 37.28 8.01 37.28 9.59L37.28 10.77C37.28 11.93 37.72 12.43 38.40 12.43C39.27 12.43 39.80 11.80 40.01 10.77L39.76 10.71C39.58 11.51 39.28 11.83 39.07 11.83C38.85 11.83 38.77 11.63 38.77 10.95ZM44.11 12.08L43.19 12.08L43.19 9.55C43.19 7.95 43.51 5.96 45.11 5.96C46.24 5.96 46.24 7.50 46.24 8.64L46.24 12.08L45.32 12.08L45.32 12.29L48.41 12.29L48.41 12.08L47.49 12.08L47.49 8.44C47.49 6.71 47.11 5.57 45.37 5.57C44.44 5.57 43.61 6.17 43.30 7.07L43.22 7.07L43.22 2.45C42.55 2.59 41.93 2.63 41.24 2.63L40.95 2.63L40.95 2.84L41.94 2.84L41.94 12.08L41.02 12.08L41.02 12.29L44.11 12.29ZM52.07 5.57C50.95 5.57 49.81 6.03 49.81 7.15C49.81 7.71 50.22 8.15 50.78 8.15C51.20 8.15 51.56 7.83 51.56 7.41C51.56 7 51.31 6.65 50.89 6.65C50.58 6.65 50.37 6.82 50.33 7.01C50.32 7.10 50.27 7.14 50.20 7.14C50.15 7.14 50.08 7.10 50.08 7.01C50.08 6.59 50.50 5.85 51.84 5.85C53.21 5.85 53.56 6.71 53.56 8.08L53.56 8.76C51.70 8.72 49.31 8.89 49.31 10.75C49.31 11.98 50.37 12.57 51.60 12.57C52.63 12.57 53.42 12.01 53.68 11.02L53.76 11.02C53.76 11.76 53.84 12.57 54.59 12.57C55.59 12.57 55.90 11.41 56.00 10.40L55.75 10.37C55.65 11.28 55.41 11.98 55.06 11.98C54.87 11.98 54.81 11.73 54.81 11.41L54.81 8.93C54.81 6.61 54.39 5.57 52.07 5.57ZM53.56 9.95C53.56 11.09 53.07 12.18 51.94 12.18C51.07 12.18 50.67 11.56 50.67 10.70C50.67 9.17 52.05 8.97 53.56 9.02ZM58.74 2.45C58.09 2.59 57.47 2.63 56.80 2.63L56.50 2.63L56.50 2.84L57.50 2.84L57.50 12.08L56.57 12.08L56.57 12.29L58.74 12.29L58.74 11.42L58.83 11.42C59.18 12.17 59.85 12.57 60.66 12.57C62.54 12.57 63.24 10.91 63.24 9.03C63.24 7.24 62.55 5.57 60.76 5.57C59.81 5.57 59.15 6.22 58.83 7.13L58.74 7.13ZM58.72 9.06C58.72 7.88 59.25 5.96 60.42 5.96C61.74 5.96 61.88 7.71 61.88 9.03C61.88 10.37 61.80 12.18 60.45 12.18C59.16 12.18 58.72 10.85 58.72 9.56ZM67.40 5.57C66.28 5.57 65.14 6.03 65.14 7.15C65.14 7.71 65.55 8.15 66.11 8.15C66.53 8.15 66.89 7.83 66.89 7.41C66.89 7 66.64 6.65 66.22 6.65C65.91 6.65 65.70 6.82 65.66 7.01C65.65 7.10 65.60 7.14 65.53 7.14C65.48 7.14 65.41 7.10 65.41 7.01C65.41 6.59 65.83 5.85 67.17 5.85C68.54 5.85 68.89 6.71 68.89 8.08L68.89 8.76C67.03 8.72 64.64 8.89 64.64 10.75C64.64 11.98 65.70 12.57 66.93 12.57C67.96 12.57 68.75 12.01 69.01 11.02L69.09 11.02C69.09 11.76 69.17 12.57 69.92 12.57C70.92 12.57 71.23 11.41 71.33 10.40L71.08 10.37C70.98 11.28 70.74 11.98 70.39 11.98C70.20 11.98 70.14 11.73 70.14 11.41L70.14 8.93C70.14 6.61 69.72 5.57 67.40 5.57ZM68.89 9.95C68.89 11.09 68.40 12.18 67.27 12.18C66.40 12.18 66.00 11.56 66.00 10.70C66.00 9.17 67.38 8.97 68.89 9.02ZM76.92 6.64C76.92 6.72 76.85 6.76 76.79 6.76C76.72 6.76 76.68 6.72 76.66 6.64C76.62 6.44 76.41 6.27 76.10 6.27C75.68 6.27 75.43 6.62 75.43 7.03C75.43 7.45 75.80 7.77 76.22 7.77C76.78 7.77 77.18 7.32 77.18 6.78C77.18 6.03 76.69 5.57 76.01 5.57C75.08 5.57 74.56 6.27 74.24 7.13L74.16 7.13L74.16 5.67C73.50 5.81 72.86 5.85 72.18 5.85L71.89 5.85L71.89 6.06L72.88 6.06L72.88 12.08L71.96 12.08L71.96 12.29L75.15 12.29L75.15 12.08L74.13 12.08L74.13 9.48C74.13 8.01 74.55 5.80 76.01 5.80C76.50 5.80 76.92 6.15 76.92 6.64Z"></path></g><defs data-v-423bf9ae=""><linearGradient data-v-423bf9ae="" gradientTransform="rotate(25)" id="27b19d42-53f3-4f0c-a9ad-e4d5d387fe56" x1="0%" y1="0%" x2="100%" y2="0%"><stop data-v-423bf9ae="" offset="0%" style="stop-color: rgb(233, 13, 218); stop-opacity: 1;"></stop><stop data-v-423bf9ae="" offset="100%" style="stop-color: rgb(21, 207, 241); stop-opacity: 1;"></stop></linearGradient></defs><g data-v-423bf9ae="" id="412c62ed-a404-4084-beb8-8d2506c80b22" transform="matrix(1.5,0,0,1.5,-3,-3)" stroke="none" fill="url(#27b19d42-53f3-4f0c-a9ad-e4d5d387fe56)"><path d="M59 8h-8V3a1 1 0 00-1-1H14a1 1 0 00-1 1v5H5a3.009 3.009 0 00-3 3v35a3.009 3.009 0 003 3h20v5h-5a1 1 0 00-1 1v6a1 1 0 001 1h24a1 1 0 001-1v-6a1 1 0 00-1-1h-5v-5h20a3.009 3.009 0 003-3V11a3.009 3.009 0 00-3-3zm-8 6h5v28h-5zM15 4h34v38H15zm28 52v4H21v-4zm-16-2v-5h10v5zm33-8a1 1 0 01-1 1H5a1 1 0 01-1-1V11a1 1 0 011-1h8v2H7a1 1 0 00-1 1v30a1 1 0 001 1h50a1 1 0 001-1V13a1 1 0 00-1-1h-6v-2h8a1 1 0 011 1zM13 14v28H8V14z"></path><path d="M46 6H18a1 1 0 00-1 1v6a1 1 0 001 1h28a1 1 0 001-1V7a1 1 0 00-1-1zm-27 6V8h26v4zM29 18H18a1 1 0 00-1 1v9a1 1 0 001 1h11a1 1 0 001-1v-9a1 1 0 00-1-1zm-1 9h-9v-7h9zM33 19h14v2H33zM33 23h14v2H33zM33 27h5v2h-5zM40 27h7v2h-7zM17 31h13v2H17zM33 31h14v2H33zM17 35h13v2H17zM33 35h8v2h-8zM43 35h4v2h-4z"></path></g><!----><g data-v-423bf9ae="" id="31c1e463-ff76-4421-b703-c7662bc501fa" fill="#262C4C" transform="matrix(0.9308170391510362,0,0,0.9308170391510362,109.47874251141803,57.71949926814452)"><path d="M0.94 9.74L0.56 9.90C1.19 11.77 2.24 12.71 3.71 12.71C4.62 12.71 5.32 12.45 5.78 11.93C6.25 11.41 6.48 10.77 6.48 10.01C6.48 9.66 6.42 9.35 6.31 9.06C6.19 8.78 6.06 8.55 5.92 8.37C5.77 8.19 5.57 8.02 5.31 7.86C5.04 7.70 4.83 7.58 4.67 7.50C4.51 7.43 4.28 7.34 4.00 7.22C3.97 7.21 3.85 7.16 3.65 7.08C3.46 7.01 3.34 6.96 3.29 6.94C3.24 6.91 3.14 6.87 2.97 6.80C2.80 6.73 2.69 6.67 2.64 6.64C2.59 6.60 2.50 6.54 2.37 6.45C2.24 6.37 2.15 6.30 2.10 6.24C2.05 6.18 1.99 6.10 1.90 6.00C1.82 5.90 1.76 5.80 1.73 5.70C1.70 5.61 1.67 5.50 1.64 5.38C1.61 5.25 1.60 5.12 1.60 4.98C1.60 4.41 1.79 3.95 2.19 3.62C2.59 3.29 3.08 3.12 3.67 3.12C4.80 3.12 5.58 3.77 6.02 5.07L6.43 4.90C6.22 4.23 5.88 3.69 5.42 3.29C4.95 2.89 4.37 2.69 3.68 2.69C2.99 2.69 2.39 2.90 1.88 3.33C1.37 3.76 1.12 4.33 1.12 5.04C1.12 5.39 1.19 5.71 1.34 5.99C1.48 6.27 1.70 6.51 1.98 6.71C2.27 6.91 2.52 7.07 2.75 7.17C2.98 7.28 3.28 7.41 3.64 7.55C3.92 7.65 4.11 7.72 4.21 7.77C4.32 7.82 4.49 7.90 4.73 8.02C4.97 8.13 5.15 8.24 5.26 8.34C5.36 8.45 5.49 8.58 5.63 8.75C5.78 8.92 5.88 9.11 5.94 9.32C5.99 9.54 6.02 9.78 6.02 10.05C6.02 10.72 5.83 11.27 5.45 11.68C5.08 12.09 4.51 12.29 3.75 12.29C2.52 12.29 1.58 11.44 0.94 9.74ZM14.53 3.21L17.05 3.21L17.05 12.60L17.47 12.60L17.47 3.21L19.99 3.21L19.99 2.80L14.53 2.80ZM30.63 2.45L26.36 12.60L26.85 12.60L28.13 9.52L33.14 9.52L34.41 12.60L34.90 12.60ZM30.63 3.50L32.94 9.07L28.32 9.07ZM47.63 2.80L44.62 8.16L41.73 2.80L41.20 2.80L44.39 8.62L44.39 12.60L44.84 12.60L44.84 8.61L48.16 2.80ZM68.25 7.64L72.17 7.64L72.17 7.24L68.25 7.24L68.25 3.21L72.31 3.21L72.31 2.80L67.83 2.80L67.83 12.60L68.25 12.60ZM81.83 2.80ZM81.41 2.80L81.41 12.60L81.83 12.60L81.83 8.48L83.38 8.48L86.51 12.60L87.05 12.60L83.86 8.47C84.76 8.41 85.47 8.15 86.01 7.67C86.55 7.20 86.81 6.52 86.81 5.64C86.81 4.71 86.51 4.00 85.90 3.52C85.30 3.04 84.50 2.80 83.51 2.80ZM81.83 3.21L83.51 3.21C84.38 3.21 85.07 3.41 85.60 3.83C86.12 4.24 86.38 4.85 86.38 5.64C86.38 6.44 86.12 7.04 85.60 7.45C85.07 7.87 84.38 8.08 83.51 8.08L81.83 8.08ZM95.87 7.48L100.21 7.48L100.21 7.08L95.87 7.08L95.87 3.21L100.49 3.21L100.49 2.80L95.45 2.80L95.45 12.60L100.49 12.60L100.49 12.19L95.87 12.19ZM109.55 9.74L109.17 9.90C109.80 11.77 110.85 12.71 112.32 12.71C113.24 12.71 113.93 12.45 114.39 11.93C114.86 11.41 115.09 10.77 115.09 10.01C115.09 9.66 115.04 9.35 114.92 9.06C114.80 8.78 114.67 8.55 114.53 8.37C114.38 8.19 114.18 8.02 113.92 7.86C113.66 7.70 113.44 7.58 113.28 7.50C113.12 7.43 112.90 7.34 112.62 7.22C112.58 7.21 112.46 7.16 112.27 7.08C112.07 7.01 111.95 6.96 111.90 6.94C111.86 6.91 111.75 6.87 111.58 6.80C111.41 6.73 111.30 6.67 111.25 6.64C111.20 6.60 111.11 6.54 110.98 6.45C110.85 6.37 110.76 6.30 110.71 6.24C110.67 6.18 110.60 6.10 110.52 6.00C110.43 5.90 110.37 5.80 110.34 5.70C110.31 5.61 110.28 5.50 110.25 5.38C110.22 5.25 110.21 5.12 110.21 4.98C110.21 4.41 110.41 3.95 110.80 3.62C111.20 3.29 111.69 3.12 112.28 3.12C113.41 3.12 114.19 3.77 114.63 5.07L115.04 4.90C114.83 4.23 114.50 3.69 114.03 3.29C113.56 2.89 112.98 2.69 112.29 2.69C111.60 2.69 111.00 2.90 110.49 3.33C109.99 3.76 109.73 4.33 109.73 5.04C109.73 5.39 109.80 5.71 109.95 5.99C110.09 6.27 110.31 6.51 110.59 6.71C110.88 6.91 111.13 7.07 111.36 7.17C111.59 7.28 111.89 7.41 112.25 7.55C112.53 7.65 112.72 7.72 112.83 7.77C112.93 7.82 113.10 7.90 113.34 8.02C113.59 8.13 113.76 8.24 113.87 8.34C113.98 8.45 114.10 8.58 114.25 8.75C114.39 8.92 114.49 9.11 114.55 9.32C114.60 9.54 114.63 9.78 114.63 10.05C114.63 10.72 114.44 11.27 114.06 11.68C113.69 12.09 113.12 12.29 112.36 12.29C111.13 12.29 110.19 11.44 109.55 9.74ZM124.12 2.80L124.12 12.60L124.54 12.60L124.54 7.62L130.77 7.62L130.77 12.60L131.19 12.60L131.19 2.80L130.77 2.80L130.77 7.18L124.54 7.18L124.54 2.80ZM141.13 12.36C141.13 12.64 141.27 12.78 141.55 12.78C141.83 12.78 141.97 12.64 141.97 12.36C141.97 12.08 141.83 11.94 141.55 11.94C141.27 11.94 141.13 12.08 141.13 12.36ZM162.79 9.74L162.41 9.90C163.04 11.77 164.09 12.71 165.56 12.71C166.48 12.71 167.17 12.45 167.64 11.93C168.10 11.41 168.34 10.77 168.34 10.01C168.34 9.66 168.28 9.35 168.16 9.06C168.04 8.78 167.91 8.55 167.77 8.37C167.62 8.19 167.42 8.02 167.16 7.86C166.90 7.70 166.69 7.58 166.52 7.50C166.36 7.43 166.14 7.34 165.86 7.22C165.82 7.21 165.70 7.16 165.51 7.08C165.31 7.01 165.19 6.96 165.14 6.94C165.10 6.91 164.99 6.87 164.82 6.80C164.65 6.73 164.54 6.67 164.49 6.64C164.44 6.60 164.35 6.54 164.22 6.45C164.09 6.37 164.00 6.30 163.95 6.24C163.91 6.18 163.84 6.10 163.76 6.00C163.67 5.90 163.62 5.80 163.58 5.70C163.55 5.61 163.52 5.50 163.49 5.38C163.46 5.25 163.45 5.12 163.45 4.98C163.45 4.41 163.65 3.95 164.04 3.62C164.44 3.29 164.93 3.12 165.52 3.12C166.65 3.12 167.44 3.77 167.87 5.07L168.28 4.90C168.07 4.23 167.74 3.69 167.27 3.29C166.81 2.89 166.23 2.69 165.54 2.69C164.85 2.69 164.25 2.90 163.74 3.33C163.23 3.76 162.97 4.33 162.97 5.04C162.97 5.39 163.05 5.71 163.19 5.99C163.34 6.27 163.55 6.51 163.83 6.71C164.12 6.91 164.38 7.07 164.60 7.17C164.83 7.28 165.13 7.41 165.49 7.55C165.77 7.65 165.97 7.72 166.07 7.77C166.17 7.82 166.34 7.90 166.59 8.02C166.83 8.13 167.00 8.24 167.11 8.34C167.22 8.45 167.34 8.58 167.49 8.75C167.63 8.92 167.73 9.11 167.79 9.32C167.85 9.54 167.87 9.78 167.87 10.05C167.87 10.72 167.68 11.27 167.31 11.68C166.93 12.09 166.36 12.29 165.61 12.29C164.37 12.29 163.44 11.44 162.79 9.74ZM176.39 3.21L178.91 3.21L178.91 12.60L179.33 12.60L179.33 3.21L181.85 3.21L181.85 2.80L176.39 2.80ZM192.49 2.45L188.22 12.60L188.71 12.60L189.98 9.52L194.99 9.52L196.27 12.60L196.76 12.60ZM192.49 3.50L194.80 9.07L190.18 9.07ZM209.48 2.80L206.47 8.16L203.59 2.80L203.06 2.80L206.25 8.62L206.25 12.60L206.70 12.60L206.70 8.61L210.01 2.80ZM229.61 2.80L229.61 12.60L230.03 12.60L230.03 2.80ZM246.41 2.80L246.41 11.79L238.92 2.45L238.92 12.60L239.34 12.60L239.34 3.61L246.83 12.95L246.83 2.80ZM256.21 7.64L260.13 7.64L260.13 7.24L256.21 7.24L256.21 3.21L260.27 3.21L260.27 2.80L255.79 2.80L255.79 12.60L256.21 12.60ZM269.23 7.70C269.23 6.38 269.64 5.29 270.45 4.41C271.26 3.53 272.29 3.09 273.53 3.09C274.77 3.09 275.80 3.53 276.61 4.41C277.42 5.29 277.83 6.38 277.83 7.70C277.83 9.02 277.42 10.11 276.61 10.99C275.80 11.87 274.77 12.31 273.53 12.31C272.29 12.31 271.26 11.87 270.45 10.99C269.64 10.11 269.23 9.02 269.23 7.70ZM268.81 7.70C268.81 9.16 269.26 10.36 270.15 11.30C271.04 12.24 272.17 12.71 273.53 12.71C274.89 12.71 276.02 12.24 276.91 11.30C277.80 10.36 278.25 9.16 278.25 7.70C278.25 6.24 277.80 5.04 276.91 4.10C276.02 3.16 274.89 2.69 273.53 2.69C272.17 2.69 271.04 3.16 270.15 4.10C269.26 5.04 268.81 6.24 268.81 7.70ZM287.63 2.80ZM287.21 2.80L287.21 12.60L287.63 12.60L287.63 8.48L289.18 8.48L292.31 12.60L292.85 12.60L289.66 8.47C290.56 8.41 291.27 8.15 291.81 7.67C292.35 7.20 292.61 6.52 292.61 5.64C292.61 4.71 292.31 4.00 291.70 3.52C291.10 3.04 290.30 2.80 289.31 2.80ZM287.63 3.21L289.31 3.21C290.18 3.21 290.87 3.41 291.40 3.83C291.92 4.24 292.18 4.85 292.18 5.64C292.18 6.44 291.92 7.04 291.40 7.45C290.87 7.87 290.18 8.08 289.31 8.08L287.63 8.08ZM309.50 3.86L310.35 12.60L310.77 12.60L309.72 2.45L305.80 10.70L301.88 2.45L300.83 12.60L301.25 12.60L302.11 3.86L305.80 11.69ZM320.29 7.48L324.63 7.48L324.63 7.08L320.29 7.08L320.29 3.21L324.91 3.21L324.91 2.80L319.87 2.80L319.87 12.60L324.91 12.60L324.91 12.19L320.29 12.19ZM334.29 2.80L334.29 12.60L336.67 12.60C338.09 12.60 339.23 12.15 340.08 11.25C340.94 10.35 341.36 9.17 341.36 7.70C341.36 6.23 340.94 5.05 340.08 4.15C339.23 3.25 338.09 2.80 336.67 2.80ZM334.71 3.22L336.67 3.22C337.97 3.22 339.00 3.63 339.77 4.46C340.53 5.28 340.91 6.37 340.91 7.70C340.91 9.09 340.54 10.18 339.78 10.98C339.02 11.78 337.99 12.18 336.67 12.18L334.71 12.18ZM350.74 12.36C350.74 12.64 350.88 12.78 351.16 12.78C351.44 12.78 351.58 12.64 351.58 12.36C351.58 12.08 351.44 11.94 351.16 11.94C350.88 11.94 350.74 12.08 350.74 12.36Z"></path></g></svg>